<?xml version="1.0" ?><svg xmlns="http://www.w3.org/2000/svg" width="24" height="24" viewBox="0 0 24 24" fill="none"><path fill-rule="evenodd" clip-rule="evenodd" d="M7.1607 7.73404C7.1607 5.03401 9.33029 2.85062 12 2.85062C14.6697 2.85062 16.8393 5.03401 16.8393 7.73404C16.8393 8.70559 16.5884 10.1591 15.8525 11.3492C15.1294 12.5184 13.9408 13.4366 12.0052 13.4099C11.7981 13.407 11.6279 13.5726 11.625 13.7796C11.6222 13.9867 11.7877 14.1569 11.9948 14.1598C14.2306 14.1907 15.6491 13.1039 16.4904 11.7436C16.8956 11.0883 17.1674 10.3704 17.3393 9.68278V9.75097C17.3393 9.95807 17.5072 10.126 17.7143 10.126C17.9214 10.126 18.0893 9.95807 18.0893 9.75097V7.73404C18.0893 7.52693 17.9214 7.35904 17.7143 7.35904C17.6664 7.35904 17.6207 7.36799 17.5787 7.38431C17.3995 4.43855 14.9731 2.10062 12 2.10062C9.02688 2.10062 6.60042 4.43855 6.4213 7.38431C6.37924 7.36799 6.33351 7.35904 6.2857 7.35904C6.07859 7.35904 5.9107 7.52693 5.9107 7.73404V9.75097C5.9107 9.95807 6.07859 10.126 6.2857 10.126C6.4928 10.126 6.6607 9.95807 6.6607 9.75097V8.0877C6.69979 8.10152 6.74187 8.10904 6.7857 8.10904C6.9928 8.10904 7.1607 7.94115 7.1607 7.73404ZM11.9999 11.306C13.7889 11.306 15.2499 9.84178 15.2499 8.02219C15.2499 6.20259 13.7889 4.73833 11.9999 4.73833C10.2109 4.73833 8.74992 6.20259 8.74992 8.02219C8.74992 9.84178 10.2109 11.306 11.9999 11.306ZM11.9999 12.056C14.2091 12.056 15.9999 10.25 15.9999 8.02219C15.9999 5.79435 14.2091 3.98833 11.9999 3.98833C9.79078 3.98833 7.99992 5.79435 7.99992 8.02219C7.99992 10.25 9.79078 12.056 11.9999 12.056ZM17.1762 16.1952H6.82364C5.67837 16.1952 4.74994 17.1236 4.74994 18.2689V20.2858C4.74994 20.7627 5.13656 21.1494 5.61348 21.1494H18.3864C18.8633 21.1494 19.2499 20.7627 19.2499 20.2858V18.2689C19.2499 17.1236 18.3215 16.1952 17.1762 16.1952ZM6.82364 15.4452C5.26415 15.4452 3.99994 16.7094 3.99994 18.2689V20.2858C3.99994 21.177 4.72235 21.8994 5.61348 21.8994H18.3864C19.2775 21.8994 19.9999 21.177 19.9999 20.2858V18.2689C19.9999 16.7094 18.7357 15.4452 17.1762 15.4452H6.82364Z" fill="black"/></svg>