<svg width="18" height="18" viewBox="0 0 18 18" fill="currentColor">
    <path
        d="M9.86902 0.565069L11.8992 4.86655C12.0403 5.16571 12.3134 5.37302 12.6291 5.42092L17.1689 6.11074C17.9641 6.23166 18.2815 7.25324 17.7062 7.83945L14.4212 11.1876C14.1929 11.4205 14.0886 11.7561 14.1427 12.0848L14.918 16.8126C15.0539 17.6406 14.2226 18.2719 13.5115 17.8813L9.45112 15.6493C9.16875 15.4942 8.83125 15.4942 8.54888 15.6493L4.48852 17.8813C3.77738 18.2723 2.94609 17.6406 3.08201 16.8126L3.85736 12.0848C3.91143 11.7561 3.80704 11.4205 3.57876 11.1876L0.293765 7.83945C-0.281457 7.25285 0.0358161 6.23127 0.831067 6.11074L5.37088 5.42092C5.68666 5.37302 5.95962 5.16571 6.1008 4.86655L8.13098 0.565069C8.48618 -0.188357 9.51345 -0.188357 9.86902 0.565069Z"
        fill="#FBB72C" stroke="black" stroke-width="0.0015" />
</svg>
    